<svg version="1.1" id="Layer_1" xmlns="http://www.w3.org/2000/svg" xmlns:xlink="http://www.w3.org/1999/xlink" x="0px" y="0px"
	 width="100%" viewBox="0 0 256 256" enable-background="new 0 0 256 256" xml:space="preserve">
<path fill="#333333" opacity="1.000000" stroke="none" 
	d="
M146.000000,257.000000 
	C97.333336,257.000000 49.166672,257.000000 1.000006,257.000000 
	C1.000004,171.666672 1.000004,86.333351 1.000002,1.000018 
	C86.333321,1.000012 171.666641,1.000012 257.000000,1.000006 
	C257.000000,86.333313 257.000000,171.666626 257.000000,256.999969 
	C220.166672,257.000000 183.333328,257.000000 146.000000,257.000000 
M135.915588,84.333725 
	C124.899239,116.914825 113.882896,149.495926 102.380821,183.513565 
	C108.902237,183.513565 114.323357,183.704208 119.709801,183.356903 
	C120.822075,183.285172 122.317329,181.383026 122.772797,180.033218 
	C133.684036,147.696976 144.494095,115.326523 155.275299,82.946541 
	C156.988571,77.800934 156.253632,76.770180 150.953308,76.227364 
	C149.629135,76.091759 148.292160,76.075417 146.960403,76.020599 
	C138.826553,75.685783 138.826492,75.687347 135.915588,84.333725 
M191.218964,111.493835 
	C182.403564,107.918060 173.588165,104.342293 163.362106,100.194313 
	C163.362106,105.531982 163.721146,109.506538 163.271301,113.387337 
	C162.708023,118.246780 164.671921,120.355980 169.200867,121.785118 
	C179.364777,124.992401 189.346405,128.777313 200.707336,132.787766 
	C197.929291,133.953491 196.482681,134.635208 194.985352,135.176651 
	C185.611511,138.566330 176.202942,141.862411 166.871033,145.363159 
	C165.528244,145.866882 163.603851,147.250168 163.538940,148.322678 
	C163.202499,153.881622 163.382446,159.471848 163.382446,165.606247 
	C165.342896,165.050781 165.975388,164.933884 166.559204,164.697052 
	C181.489075,158.640488 196.434021,152.620346 211.333145,146.488968 
	C223.239502,141.589172 223.111450,141.528763 223.003021,128.348969 
	C222.980011,125.551414 222.072983,124.217232 219.565216,123.216911 
	C210.305191,119.523193 201.118713,115.645042 191.218964,111.493835 
M60.830048,114.545464 
	C56.555504,116.366844 52.272640,118.168983 48.008007,120.013283 
	C36.152710,125.140244 36.047695,125.149307 36.302670,137.966782 
	C36.334854,139.584656 37.846088,141.924835 39.302048,142.630432 
	C45.116306,145.448242 51.171612,147.771484 57.152210,150.242645 
	C69.511147,155.349380 81.879356,160.433685 95.787460,166.163147 
	C95.787460,160.189301 95.581215,155.421295 95.858490,150.681580 
	C96.049828,147.410889 94.747780,145.944641 91.766777,144.950134 
	C82.166557,141.747330 72.639870,138.323013 63.103001,134.932968 
	C62.023766,134.549332 61.060104,133.840561 59.378162,132.917969 
	C70.747360,128.814438 81.192337,125.109848 91.570808,121.227470 
	C93.110329,120.651558 95.468788,119.287605 95.517387,118.201813 
	C95.772507,112.501457 95.406502,106.773293 95.225189,99.872589 
	C83.102646,105.015945 72.299614,109.599457 60.830048,114.545464 
z"/>
<path fill="#3D70D3" opacity="1.000000" stroke="none" 
	d="
M136.019043,83.957123 
	C138.826492,75.687347 138.826553,75.685783 146.960403,76.020599 
	C148.292160,76.075417 149.629135,76.091759 150.953308,76.227364 
	C156.253632,76.770180 156.988571,77.800934 155.275299,82.946541 
	C144.494095,115.326523 133.684036,147.696976 122.772797,180.033218 
	C122.317329,181.383026 120.822075,183.285172 119.709801,183.356903 
	C114.323357,183.704208 108.902237,183.513565 102.380821,183.513565 
	C113.882896,149.495926 124.899239,116.914825 136.019043,83.957123 
z"/>
<path fill="#EFEFEF" opacity="1.000000" stroke="none" 
	d="
M191.561768,111.665031 
	C201.118713,115.645042 210.305191,119.523193 219.565216,123.216911 
	C222.072983,124.217232 222.980011,125.551414 223.003021,128.348969 
	C223.111450,141.528763 223.239502,141.589172 211.333145,146.488968 
	C196.434021,152.620346 181.489075,158.640488 166.559204,164.697052 
	C165.975388,164.933884 165.342896,165.050781 163.382446,165.606247 
	C163.382446,159.471848 163.202499,153.881622 163.538940,148.322678 
	C163.603851,147.250168 165.528244,145.866882 166.871033,145.363159 
	C176.202942,141.862411 185.611511,138.566330 194.985352,135.176651 
	C196.482681,134.635208 197.929291,133.953491 200.707336,132.787766 
	C189.346405,128.777313 179.364777,124.992401 169.200867,121.785118 
	C164.671921,120.355980 162.708023,118.246780 163.271301,113.387337 
	C163.721146,109.506538 163.362106,105.531982 163.362106,100.194313 
	C173.588165,104.342293 182.403564,107.918060 191.561768,111.665031 
z"/>
<path fill="#EFEFEF" opacity="1.000000" stroke="none" 
	d="
M61.163315,114.364220 
	C72.299614,109.599457 83.102646,105.015945 95.225189,99.872589 
	C95.406502,106.773293 95.772507,112.501457 95.517387,118.201813 
	C95.468788,119.287605 93.110329,120.651558 91.570808,121.227470 
	C81.192337,125.109848 70.747360,128.814438 59.378162,132.917969 
	C61.060104,133.840561 62.023766,134.549332 63.103001,134.932968 
	C72.639870,138.323013 82.166557,141.747330 91.766777,144.950134 
	C94.747780,145.944641 96.049828,147.410889 95.858490,150.681580 
	C95.581215,155.421295 95.787460,160.189301 95.787460,166.163147 
	C81.879356,160.433685 69.511147,155.349380 57.152210,150.242645 
	C51.171612,147.771484 45.116306,145.448242 39.302048,142.630432 
	C37.846088,141.924835 36.334854,139.584656 36.302670,137.966782 
	C36.047695,125.149307 36.152710,125.140244 48.008007,120.013283 
	C52.272640,118.168983 56.555504,116.366844 61.163315,114.364220 
z"/>
</svg>